<svg height="1024" viewBox="0 0 1024 1024" width="1024" xmlns="http://www.w3.org/2000/svg"><path d="m370.586446 141.342505c64.393745-43.6367285 117.167914-79.3423117 117.260501-79.3423117.108017-.0154302 1.913449.8949541 4.012071 2.0059316 5.925521 3.1477697 16.156303 8.6409363 19.566563 10.523426 1.697415.9258146 4.752762 2.5922809 6.789659 3.7032585 13.857077 7.5145285 33.130451 18.4545711 49.147874 27.9133106 7.885263 4.644503 28.39312 18.37742 46.833217 31.338824 22.683634 15.954872 41.555801 30.104405 62.572882 46.92337 54.255549 43.405275 100.147473 87.751794 141.903877 137.113143 11.187506 13.223719 17.313631 20.846259 25.013721 31.107371 13.147249 17.528756 26.109326 37.510921 35.722866 55.070538 2.916467 5.308004 7.129142 13.424312 9.551816 18.36199 8.795695 17.976234 15.893975 35.875316 21.341133 53.85155 2.052329 6.804737 2.638709 8.90325 3.950348 14.103242 3.580002 14.303836 5.416296 23.48483 7.237159 36.1222 2.160346 14.982766 3.163364 28.283636 3.348536 44.130496l.092587 8.100878-.401207 3.086048c-1.604829 12.189893-4.521296 22.605307-9.274058 33.175024-4.552157 10.1531-11.079489 20.33706-18.532683 29.024287-8.456212 9.829066-18.393804 18.824897-29.920793 27.064647-8.919144 6.372691-18.486391 12.205323-30.090535 18.33113-16.742683 8.826099-31.186139 15.630836-47.357873 22.312132-6.496469 2.684862-22.436737 8.517494-30.599759 11.202356-8.487074 2.792874-9.104316 2.993467-15.569923 4.922248-11.187507 3.348363-31.031829 8.054587-43.392095 10.291972-1.157328.216024-2.870174.524628-3.811468.694361-7.592073 1.357862-19.489408 3.224921-27.004326 4.212457-12.175093 1.620175-32.621226 3.471804-45.521579 4.104444-24.535359 1.21899-47.728217 1.188129-72.062973-.077151-5.47802-.293174-14.767509-.848663-14.952681-.910384-.077155-.01543.987587-.154303 2.391812-.308605 8.379056-.894954 16.896992-1.86706 21.202253-2.407118 26.587688-3.363793 54.903653-8.640936 77.000908-14.365557 30.383725-7.884854 54.919084-16.849825 78.312546-28.623101 15.38475-7.730552 27.698723-15.476534 39.734937-24.966134 7.622936-6.002365 12.097938-10.13767 17.221045-15.908581 12.391128-13.9798 19.659149-28.036752 22.266996-43.050379 1.620259-9.381588 1.265345-18.778606-1.080173-29.008858-2.746726-11.973868-8.456212-24.487796-17.035873-37.341189-1.080173-1.620175-2.715863-4.119875-3.626295-5.554887-4.027502-6.3264-8.996298-13.532324-13.718197-19.905014-1.697415-2.299106-4.181813-5.69376-5.539745-7.560819-12.036214-16.541221-26.340792-34.039117-40.058989-48.991023-14.474319-15.769709-31.139846-32.156628-47.31158-46.522184-33.007002-29.332893-68.452109-55.039678-110.331961-80.036673-27.745017-16.556651-62.063658-34.131698-94.160228-48.23494-16.542079-7.283075-27.868465-11.973869-42.867439-17.775641-8.163022-3.1632-10.832593-4.150735-25.846998-9.566751-8.27104-2.978037-17.545097-6.35726-20.600443-7.483668-3.055347-1.126408-10.554834-3.903851-16.680959-6.141237-17.869148-6.588714-34.61183-12.899683-67.958315-25.660494l-9.027161-3.456375-12.499145-3.024328c-6.866815-1.666466-12.545439-3.070618-12.607163-3.132339-.046293-.046291 52.588997-35.798165 116.96731-79.434893zm-269.534038 689.330693c.632673-.802372 78.35884-99.849105 172.735102-220.112422 94.376263-120.263317 171.608636-218.631118 171.639498-218.600258.046293.046291-.385776 505.633646-.478363 553.343959l-.030862 16.695523-172.411049-64.853313c-94.823763-35.659292-172.457343-64.884173-172.503637-64.930464-.0462927-.061721.43207-.740652 1.049311-1.543025zm486.371063-311.474893c3.54914-.354895 8.533367-.123442 12.653455.60178 4.58302.817803 13.054663 3.394653 18.594408 5.662899 12.530007 5.138271 23.933549 12.868823 34.642693 23.515691 5.894658 5.848062 14.35087 17.004128 19.196218 25.290169 3.610864 6.156667 7.237159 14.226684 7.700091 17.12757.694397 4.274177.848707 9.397018.354914 12.498497-1.049311 6.696726-3.657158 10.708589-9.428368 14.535289-2.916467 1.928781-4.660175 2.823735-6.943969 3.579817-6.373021 2.113943-13.718198 1.88249-22.236134-.678931-3.240519-.987535-10.261644-3.610677-14.103974-5.292573-11.52699-5.03026-21.572599-11.510962-32.559502-20.985131-7.298884-6.29554-15.955699-16.602942-21.00165-25.027855-3.965779-6.604144-7.329746-14.442708-7.931557-18.39285-1.126466-7.62254-.308621-14.365557 2.422674-19.874154.987587-1.975071 1.18819-2.314536 2.484398-4.073584 1.728277-2.360827 3.641726-4.212456 5.231124-5.107411 3.178795-1.805338 6.959401-2.962606 10.925179-3.379223z" fill="#0082c8" fill-rule="evenodd"/></svg>